<svg width="600" height="480" viewBox="0 0 600 480" fill="none" xmlns="http://www.w3.org/2000/svg">
<path d="M171.902 425.903C121.294 439.49 57.6832 433.567 26.0533 401.517C-5.57664 369.468 -5.2252 311.638 10.2383 262.518C25.7018 213.747 56.2774 173.684 82.6357 132.577C108.994 91.1206 131.135 48.968 165.928 23.1887C201.072 -2.59063 249.22 -11.6482 278.038 21.0984C306.857 54.1935 316.346 129.093 358.87 150.343C401.746 171.594 477.307 139.544 526.157 147.905C575.008 155.917 596.798 205.037 599.609 255.551C602.772 306.064 586.606 358.32 556.03 397.685C525.103 437.051 480.118 463.527 434.431 452.728C388.743 441.58 343.055 393.157 301.234 385.493C259.763 378.177 222.51 411.969 171.902 425.903Z" fill="#12F35F"/>
<path d="M387.364 66.9456C427.904 85.5386 472.376 105.031 501.117 139.518C530.16 174.305 542.867 224.386 528.648 265.171C514.428 305.956 472.981 337.744 436.375 365.933C399.768 394.123 368.002 418.713 328.068 442.404C288.133 465.796 240.333 487.987 202.214 477.191C164.094 466.096 135.959 421.712 117.807 380.028C99.3521 338.643 91.1837 300.258 78.7798 258.274C66.3759 216.289 50.3416 171.006 63.3506 137.119C76.057 103.232 118.412 81.0403 158.346 62.1474C198.281 43.5543 236.4 28.2601 273.309 29.4596C310.521 30.6592 346.825 48.3525 387.364 66.9456Z" fill="#0DCB4D" fill-opacity="0.85"/>
<path d="M415.921 92.7451C463.117 129.931 507.287 173.715 525.136 228.594C542.986 283.473 534.515 349.449 499.118 390.233C463.419 431.018 400.795 446.312 343.313 460.107C285.832 473.902 233.796 485.897 187.508 473.002C141.523 460.107 101.589 422.021 74.3607 376.438C46.8301 330.556 32.0059 276.876 45.3174 233.092C58.9314 189.009 100.379 154.522 141.826 116.136C183.575 77.7507 225.023 35.4666 271.31 30.0686C317.295 24.3708 368.424 55.5591 415.921 92.7451Z" fill="#12A143" fill-opacity="0.5"/>
</svg>
