<svg width="100" height="101" viewBox="0 0 100 101" fill="none" xmlns="http://www.w3.org/2000/svg">
<mask id="path-1-inside-1" fill="white">
<path d="M28.0522 19.8743C28.3469 19.8743 28.6015 19.9814 28.8158 20.1955C29.0301 20.4097 29.1373 20.664 29.1373 20.9584V27.0211C29.1373 27.3155 29.0301 27.5698 28.8158 27.7839C28.6015 27.9981 28.3469 28.1051 28.0522 28.1051H4.58159C4.28687 28.1051 4.03234 27.9981 3.81799 27.7839C3.60365 27.5698 3.49648 27.3155 3.49648 27.0211V1.08406C3.49648 0.789621 3.60365 0.535337 3.81799 0.321202C4.03234 0.107067 4.28687 0 4.58159 0H13.2625C13.5572 0 13.8118 0.107067 14.0261 0.321202C14.2404 0.535337 14.3476 0.789621 14.3476 1.08406V19.8743H28.0522Z"/>
<path d="M49.0957 28.5066C44.5945 28.5066 41.0177 27.5296 38.3652 25.5757C35.7395 23.6217 34.4266 20.5703 34.4266 16.4214V1.08406C34.4266 0.789621 34.5338 0.535337 34.7481 0.321202C34.9625 0.107067 35.217 0 35.5117 0H43.9113C44.206 0 44.4606 0.107067 44.6749 0.321202C44.8892 0.535337 44.9964 0.789621 44.9964 1.08406V17.0638C44.9964 18.1613 45.3581 19.0044 46.0815 19.5933C46.8317 20.1822 47.8365 20.4766 49.0957 20.4766C50.355 20.4766 51.3463 20.1822 52.0698 19.5933C52.82 19.0044 53.1951 18.1613 53.1951 17.0638V1.08406C53.1951 0.789621 53.3022 0.535337 53.5166 0.321202C53.7309 0.107067 53.9854 0 54.2802 0H62.6798C62.9745 0 63.229 0.107067 63.4434 0.321202C63.6577 0.535337 63.7649 0.789621 63.7649 1.08406V16.4214C63.7649 20.5703 62.4386 23.6217 59.7861 25.5757C57.1604 27.5296 53.597 28.5066 49.0957 28.5066Z"/>
<path d="M99.8392 26.6999C99.9464 26.8605 100 27.0345 100 27.2218C100 27.4627 99.9062 27.6769 99.7187 27.8642C99.5579 28.0248 99.357 28.1051 99.1158 28.1051H88.747C88.1307 28.1051 87.6485 27.891 87.3001 27.4627L80.3072 18.8304V27.0211C80.3072 27.3155 80.2 27.5698 79.9857 27.7839C79.7713 27.9981 79.5168 28.1051 79.2221 28.1051H70.9431C70.6483 28.1051 70.3938 27.9981 70.1795 27.7839C69.9651 27.5698 69.858 27.3155 69.858 27.0211V1.08406C69.858 0.789621 69.9651 0.535337 70.1795 0.321202C70.3938 0.107067 70.6483 0 70.9431 0H79.2221C79.5168 0 79.7713 0.107067 79.9857 0.321202C80.2 0.535337 80.3072 0.789621 80.3072 1.08406V8.63229L86.6571 0.682554C87.059 0.227518 87.5547 0 88.1441 0H97.8298C98.0709 0 98.2719 0.0936841 98.4326 0.281052C98.6202 0.441653 98.7139 0.642403 98.7139 0.883304C98.7139 1.09744 98.647 1.28481 98.513 1.44541L88.9881 13.0488L99.8392 26.6999Z"/>
<path d="M20.4162 56.121H27.6905C27.9852 56.121 28.2397 56.2281 28.4541 56.4422C28.6684 56.6564 28.7756 56.9106 28.7756 57.2051V63.2678C28.7756 63.5622 28.6684 63.8165 28.4541 64.0306C28.2397 64.2447 27.9852 64.3518 27.6905 64.3518H2.21042C1.91569 64.3518 1.66116 64.2447 1.44682 64.0306C1.23247 63.8165 1.1253 63.5622 1.1253 63.2678V57.2051C1.1253 56.9106 1.23247 56.6564 1.44682 56.4422C1.66116 56.2281 1.91569 56.121 2.21042 56.121H9.56508V44.4775H2.21042C1.91569 44.4775 1.66116 44.3704 1.44682 44.1563C1.23247 43.9421 1.1253 43.6879 1.1253 43.3934V37.3307C1.1253 37.0363 1.23247 36.782 1.44682 36.5679C1.66116 36.3538 1.91569 36.2467 2.21042 36.2467H27.6905C27.9852 36.2467 28.2397 36.3538 28.4541 36.5679C28.6684 36.782 28.7756 37.0363 28.7756 37.3307V43.3934C28.7756 43.6879 28.6684 43.9421 28.4541 44.1563C28.2397 44.3704 27.9852 44.4775 27.6905 44.4775H20.4162V56.121Z"/>
<path d="M51.3062 46.4448C54.2534 46.766 56.6112 47.288 58.3795 48.0107C60.1746 48.7334 61.4741 49.6836 62.2779 50.8614C63.0816 52.0391 63.4835 53.5113 63.4835 55.2779C63.4835 57.2051 62.8539 58.8914 61.5946 60.3368C60.3622 61.7554 58.6474 62.8529 56.4504 63.6291C54.2534 64.3786 51.7482 64.7533 48.935 64.7533C45.8002 64.7533 43.1477 64.3652 40.9775 63.589C38.8073 62.8127 37.1863 61.7822 36.1146 60.4974C35.0428 59.1858 34.507 57.7538 34.507 56.2013C34.507 55.9337 34.5874 55.7195 34.7481 55.5589C34.9357 55.3983 35.1634 55.318 35.4313 55.318H43.6702C44.2328 55.318 44.6883 55.492 45.0366 55.84C45.4921 56.2682 46.0012 56.5627 46.5638 56.7233C47.1265 56.8571 47.9168 56.924 48.935 56.924C51.4803 56.924 52.753 56.5359 52.753 55.7597C52.753 55.4385 52.5788 55.1708 52.2305 54.9567C51.909 54.7158 51.3196 54.515 50.4622 54.3544C49.6316 54.167 48.3991 53.9797 46.7648 53.7923C43.0941 53.364 40.2809 52.454 38.325 51.0621C36.3691 49.6435 35.3912 47.6493 35.3912 45.0797C35.3912 43.2596 35.9404 41.6536 37.0389 40.2617C38.1374 38.8698 39.6914 37.7858 41.7009 37.0095C43.7372 36.2333 46.0949 35.8452 48.7742 35.8452C51.5607 35.8452 53.9988 36.2868 56.0887 37.1701C58.1785 38.0267 59.7727 39.0973 60.8712 40.3822C61.9697 41.667 62.519 42.925 62.519 44.1563C62.519 44.4239 62.4252 44.6381 62.2377 44.7987C62.0769 44.9593 61.8492 45.0396 61.5545 45.0396H52.9137C52.4582 45.0396 52.043 44.879 51.6679 44.5578C51.3731 44.2901 51.0248 44.076 50.6229 43.9154C50.221 43.7548 49.6048 43.6745 48.7742 43.6745C46.9791 43.6745 46.0815 44.0492 46.0815 44.7987C46.0815 45.2002 46.4298 45.5214 47.1265 45.7623C47.8231 45.9764 49.2163 46.2039 51.3062 46.4448Z"/>
<path d="M99.8392 62.9466C99.9464 63.1072 100 63.2811 100 63.4685C100 63.7094 99.9062 63.9235 99.7187 64.1109C99.5579 64.2715 99.357 64.3518 99.1158 64.3518H88.747C88.1307 64.3518 87.6485 64.1377 87.3001 63.7094L80.3072 55.0771V63.2678C80.3072 63.5622 80.2 63.8165 79.9857 64.0306C79.7713 64.2447 79.5168 64.3518 79.2221 64.3518H70.9431C70.6483 64.3518 70.3938 64.2447 70.1795 64.0306C69.9651 63.8165 69.858 63.5622 69.858 63.2678V37.3307C69.858 37.0363 69.9651 36.782 70.1795 36.5679C70.3938 36.3538 70.6483 36.2467 70.9431 36.2467H79.2221C79.5168 36.2467 79.7713 36.3538 79.9857 36.5679C80.2 36.782 80.3072 37.0363 80.3072 37.3307V44.879L86.6571 36.9292C87.059 36.4742 87.5547 36.2467 88.1441 36.2467H97.8298C98.0709 36.2467 98.2719 36.3404 98.4326 36.5277C98.6202 36.6883 98.7139 36.8891 98.7139 37.13C98.7139 37.3441 98.647 37.5315 98.513 37.6921L88.9881 49.2955L99.8392 62.9466Z"/>
<path d="M29.9009 88.9951C29.9009 93.0904 28.5345 96.1151 25.8016 98.069C23.0955 100.023 19.4785 101 14.9505 101C10.4224 101 6.79201 100.023 4.05913 98.069C1.35304 96.1151 0 93.0636 0 88.9148V84.1771C0 81.4469 0.64303 79.1851 1.92909 77.3917C3.24194 75.5716 5.02367 74.2332 7.27428 73.3767C9.52489 72.5201 12.0836 72.0919 14.9505 72.0919C17.8173 72.0919 20.3626 72.5201 22.5864 73.3767C24.837 74.2332 26.6188 75.5582 27.9316 77.3515C29.2445 79.1449 29.9009 81.3933 29.9009 84.0968V88.9951ZM10.8511 89.758C10.8511 90.8554 11.2128 91.6985 11.9362 92.2874C12.6865 92.8763 13.6912 93.1707 14.9505 93.1707C16.2097 93.1707 17.2011 92.8763 17.9245 92.2874C18.6747 91.6718 19.0498 90.8152 19.0498 89.7178V83.3741C19.0498 82.2766 18.6747 81.4335 17.9245 80.8446C17.2011 80.229 16.2097 79.9212 14.9505 79.9212C13.6912 79.9212 12.6865 80.2156 11.9362 80.8045C11.2128 81.3933 10.8511 82.2365 10.8511 83.3339V89.758Z"/>
<path d="M48.9752 72.4934C53.5032 72.4934 57.1202 73.4704 59.8263 75.4243C62.5592 77.3783 63.9256 80.403 63.9256 84.4983V88.5936C63.9256 92.7692 62.5726 95.8206 59.8665 97.7478C57.1872 99.6483 53.5568 100.599 48.9752 100.599H36.1548C35.86 100.599 35.6055 100.491 35.3912 100.277C35.1768 100.063 35.0696 99.8089 35.0696 99.5144V73.5774C35.0696 73.283 35.1768 73.0287 35.3912 72.8146C35.6055 72.6004 35.86 72.4934 36.1548 72.4934H48.9752ZM49.1761 92.7692C50.4354 92.7692 51.4267 92.4748 52.1501 91.8859C52.9003 91.2703 53.2754 90.4137 53.2754 89.3163V83.7756C53.2754 82.6781 52.9003 81.835 52.1501 81.2461C51.4267 80.6305 50.4354 80.3227 49.1761 80.3227H45.5189V92.7692H49.1761Z"/>
<path d="M96.2624 92.7692C96.5571 92.7692 96.8116 92.8763 97.026 93.0904C97.2403 93.3045 97.3475 93.5588 97.3475 93.8533V99.5144C97.3475 99.8089 97.2403 100.063 97.026 100.277C96.8116 100.491 96.5571 100.599 96.2624 100.599H70.8627C70.568 100.599 70.3134 100.491 70.0991 100.277C69.8847 100.063 69.7776 99.8089 69.7776 99.5144V73.5774C69.7776 73.283 69.8847 73.0287 70.0991 72.8146C70.3134 72.6004 70.568 72.4934 70.8627 72.4934H95.8605C96.1552 72.4934 96.4097 72.6004 96.6241 72.8146C96.8384 73.0287 96.9456 73.283 96.9456 73.5774V79.2386C96.9456 79.533 96.8384 79.7873 96.6241 80.0015C96.4097 80.2156 96.1552 80.3227 95.8605 80.3227H80.2268V82.8521H93.6501C93.9448 82.8521 94.1993 82.9592 94.4137 83.1733C94.628 83.3875 94.7352 83.6417 94.7352 83.9362V89.1557C94.7352 89.4501 94.628 89.7044 94.4137 89.9185C94.1993 90.1327 93.9448 90.2398 93.6501 90.2398H80.2268V92.7692H96.2624Z"/>
</mask>
<path d="M28.0522 19.8743C28.3469 19.8743 28.6015 19.9814 28.8158 20.1955C29.0301 20.4097 29.1373 20.664 29.1373 20.9584V27.0211C29.1373 27.3155 29.0301 27.5698 28.8158 27.7839C28.6015 27.9981 28.3469 28.1051 28.0522 28.1051H4.58159C4.28687 28.1051 4.03234 27.9981 3.81799 27.7839C3.60365 27.5698 3.49648 27.3155 3.49648 27.0211V1.08406C3.49648 0.789621 3.60365 0.535337 3.81799 0.321202C4.03234 0.107067 4.28687 0 4.58159 0H13.2625C13.5572 0 13.8118 0.107067 14.0261 0.321202C14.2404 0.535337 14.3476 0.789621 14.3476 1.08406V19.8743H28.0522Z" fill="white"/>
<path d="M49.0957 28.5066C44.5945 28.5066 41.0177 27.5296 38.3652 25.5757C35.7395 23.6217 34.4266 20.5703 34.4266 16.4214V1.08406C34.4266 0.789621 34.5338 0.535337 34.7481 0.321202C34.9625 0.107067 35.217 0 35.5117 0H43.9113C44.206 0 44.4606 0.107067 44.6749 0.321202C44.8892 0.535337 44.9964 0.789621 44.9964 1.08406V17.0638C44.9964 18.1613 45.3581 19.0044 46.0815 19.5933C46.8317 20.1822 47.8365 20.4766 49.0957 20.4766C50.355 20.4766 51.3463 20.1822 52.0698 19.5933C52.82 19.0044 53.1951 18.1613 53.1951 17.0638V1.08406C53.1951 0.789621 53.3022 0.535337 53.5166 0.321202C53.7309 0.107067 53.9854 0 54.2802 0H62.6798C62.9745 0 63.229 0.107067 63.4434 0.321202C63.6577 0.535337 63.7649 0.789621 63.7649 1.08406V16.4214C63.7649 20.5703 62.4386 23.6217 59.7861 25.5757C57.1604 27.5296 53.597 28.5066 49.0957 28.5066Z" fill="white"/>
<path d="M99.8392 26.6999C99.9464 26.8605 100 27.0345 100 27.2218C100 27.4627 99.9062 27.6769 99.7187 27.8642C99.5579 28.0248 99.357 28.1051 99.1158 28.1051H88.747C88.1307 28.1051 87.6485 27.891 87.3001 27.4627L80.3072 18.8304V27.0211C80.3072 27.3155 80.2 27.5698 79.9857 27.7839C79.7713 27.9981 79.5168 28.1051 79.2221 28.1051H70.9431C70.6483 28.1051 70.3938 27.9981 70.1795 27.7839C69.9651 27.5698 69.858 27.3155 69.858 27.0211V1.08406C69.858 0.789621 69.9651 0.535337 70.1795 0.321202C70.3938 0.107067 70.6483 0 70.9431 0H79.2221C79.5168 0 79.7713 0.107067 79.9857 0.321202C80.2 0.535337 80.3072 0.789621 80.3072 1.08406V8.63229L86.6571 0.682554C87.059 0.227518 87.5547 0 88.1441 0H97.8298C98.0709 0 98.2719 0.0936841 98.4326 0.281052C98.6202 0.441653 98.7139 0.642403 98.7139 0.883304C98.7139 1.09744 98.647 1.28481 98.513 1.44541L88.9881 13.0488L99.8392 26.6999Z" fill="white"/>
<path d="M20.4162 56.121H27.6905C27.9852 56.121 28.2397 56.2281 28.4541 56.4422C28.6684 56.6564 28.7756 56.9106 28.7756 57.2051V63.2678C28.7756 63.5622 28.6684 63.8165 28.4541 64.0306C28.2397 64.2447 27.9852 64.3518 27.6905 64.3518H2.21042C1.91569 64.3518 1.66116 64.2447 1.44682 64.0306C1.23247 63.8165 1.1253 63.5622 1.1253 63.2678V57.2051C1.1253 56.9106 1.23247 56.6564 1.44682 56.4422C1.66116 56.2281 1.91569 56.121 2.21042 56.121H9.56508V44.4775H2.21042C1.91569 44.4775 1.66116 44.3704 1.44682 44.1563C1.23247 43.9421 1.1253 43.6879 1.1253 43.3934V37.3307C1.1253 37.0363 1.23247 36.782 1.44682 36.5679C1.66116 36.3538 1.91569 36.2467 2.21042 36.2467H27.6905C27.9852 36.2467 28.2397 36.3538 28.4541 36.5679C28.6684 36.782 28.7756 37.0363 28.7756 37.3307V43.3934C28.7756 43.6879 28.6684 43.9421 28.4541 44.1563C28.2397 44.3704 27.9852 44.4775 27.6905 44.4775H20.4162V56.121Z" fill="white"/>
<path d="M51.3062 46.4448C54.2534 46.766 56.6112 47.288 58.3795 48.0107C60.1746 48.7334 61.4741 49.6836 62.2779 50.8614C63.0816 52.0391 63.4835 53.5113 63.4835 55.2779C63.4835 57.2051 62.8539 58.8914 61.5946 60.3368C60.3622 61.7554 58.6474 62.8529 56.4504 63.6291C54.2534 64.3786 51.7482 64.7533 48.935 64.7533C45.8002 64.7533 43.1477 64.3652 40.9775 63.589C38.8073 62.8127 37.1863 61.7822 36.1146 60.4974C35.0428 59.1858 34.507 57.7538 34.507 56.2013C34.507 55.9337 34.5874 55.7195 34.7481 55.5589C34.9357 55.3983 35.1634 55.318 35.4313 55.318H43.6702C44.2328 55.318 44.6883 55.492 45.0366 55.84C45.4921 56.2682 46.0012 56.5627 46.5638 56.7233C47.1265 56.8571 47.9168 56.924 48.935 56.924C51.4803 56.924 52.753 56.5359 52.753 55.7597C52.753 55.4385 52.5788 55.1708 52.2305 54.9567C51.909 54.7158 51.3196 54.515 50.4622 54.3544C49.6316 54.167 48.3991 53.9797 46.7648 53.7923C43.0941 53.364 40.2809 52.454 38.325 51.0621C36.3691 49.6435 35.3912 47.6493 35.3912 45.0797C35.3912 43.2596 35.9404 41.6536 37.0389 40.2617C38.1374 38.8698 39.6914 37.7858 41.7009 37.0095C43.7372 36.2333 46.0949 35.8452 48.7742 35.8452C51.5607 35.8452 53.9988 36.2868 56.0887 37.1701C58.1785 38.0267 59.7727 39.0973 60.8712 40.3822C61.9697 41.667 62.519 42.925 62.519 44.1563C62.519 44.4239 62.4252 44.6381 62.2377 44.7987C62.0769 44.9593 61.8492 45.0396 61.5545 45.0396H52.9137C52.4582 45.0396 52.043 44.879 51.6679 44.5578C51.3731 44.2901 51.0248 44.076 50.6229 43.9154C50.221 43.7548 49.6048 43.6745 48.7742 43.6745C46.9791 43.6745 46.0815 44.0492 46.0815 44.7987C46.0815 45.2002 46.4298 45.5214 47.1265 45.7623C47.8231 45.9764 49.2163 46.2039 51.3062 46.4448Z" fill="white"/>
<path d="M99.8392 62.9466C99.9464 63.1072 100 63.2811 100 63.4685C100 63.7094 99.9062 63.9235 99.7187 64.1109C99.5579 64.2715 99.357 64.3518 99.1158 64.3518H88.747C88.1307 64.3518 87.6485 64.1377 87.3001 63.7094L80.3072 55.0771V63.2678C80.3072 63.5622 80.2 63.8165 79.9857 64.0306C79.7713 64.2447 79.5168 64.3518 79.2221 64.3518H70.9431C70.6483 64.3518 70.3938 64.2447 70.1795 64.0306C69.9651 63.8165 69.858 63.5622 69.858 63.2678V37.3307C69.858 37.0363 69.9651 36.782 70.1795 36.5679C70.3938 36.3538 70.6483 36.2467 70.9431 36.2467H79.2221C79.5168 36.2467 79.7713 36.3538 79.9857 36.5679C80.2 36.782 80.3072 37.0363 80.3072 37.3307V44.879L86.6571 36.9292C87.059 36.4742 87.5547 36.2467 88.1441 36.2467H97.8298C98.0709 36.2467 98.2719 36.3404 98.4326 36.5277C98.6202 36.6883 98.7139 36.8891 98.7139 37.13C98.7139 37.3441 98.647 37.5315 98.513 37.6921L88.9881 49.2955L99.8392 62.9466Z" fill="white"/>
<path d="M29.9009 88.9951C29.9009 93.0904 28.5345 96.1151 25.8016 98.069C23.0955 100.023 19.4785 101 14.9505 101C10.4224 101 6.79201 100.023 4.05913 98.069C1.35304 96.1151 0 93.0636 0 88.9148V84.1771C0 81.4469 0.64303 79.1851 1.92909 77.3917C3.24194 75.5716 5.02367 74.2332 7.27428 73.3767C9.52489 72.5201 12.0836 72.0919 14.9505 72.0919C17.8173 72.0919 20.3626 72.5201 22.5864 73.3767C24.837 74.2332 26.6188 75.5582 27.9316 77.3515C29.2445 79.1449 29.9009 81.3933 29.9009 84.0968V88.9951ZM10.8511 89.758C10.8511 90.8554 11.2128 91.6985 11.9362 92.2874C12.6865 92.8763 13.6912 93.1707 14.9505 93.1707C16.2097 93.1707 17.2011 92.8763 17.9245 92.2874C18.6747 91.6718 19.0498 90.8152 19.0498 89.7178V83.3741C19.0498 82.2766 18.6747 81.4335 17.9245 80.8446C17.2011 80.229 16.2097 79.9212 14.9505 79.9212C13.6912 79.9212 12.6865 80.2156 11.9362 80.8045C11.2128 81.3933 10.8511 82.2365 10.8511 83.3339V89.758Z" fill="white"/>
<path d="M48.9752 72.4934C53.5032 72.4934 57.1202 73.4704 59.8263 75.4243C62.5592 77.3783 63.9256 80.403 63.9256 84.4983V88.5936C63.9256 92.7692 62.5726 95.8206 59.8665 97.7478C57.1872 99.6483 53.5568 100.599 48.9752 100.599H36.1548C35.86 100.599 35.6055 100.491 35.3912 100.277C35.1768 100.063 35.0696 99.8089 35.0696 99.5144V73.5774C35.0696 73.283 35.1768 73.0287 35.3912 72.8146C35.6055 72.6004 35.86 72.4934 36.1548 72.4934H48.9752ZM49.1761 92.7692C50.4354 92.7692 51.4267 92.4748 52.1501 91.8859C52.9003 91.2703 53.2754 90.4137 53.2754 89.3163V83.7756C53.2754 82.6781 52.9003 81.835 52.1501 81.2461C51.4267 80.6305 50.4354 80.3227 49.1761 80.3227H45.5189V92.7692H49.1761Z" fill="white"/>
<path d="M96.2624 92.7692C96.5571 92.7692 96.8116 92.8763 97.026 93.0904C97.2403 93.3045 97.3475 93.5588 97.3475 93.8533V99.5144C97.3475 99.8089 97.2403 100.063 97.026 100.277C96.8116 100.491 96.5571 100.599 96.2624 100.599H70.8627C70.568 100.599 70.3134 100.491 70.0991 100.277C69.8847 100.063 69.7776 99.8089 69.7776 99.5144V73.5774C69.7776 73.283 69.8847 73.0287 70.0991 72.8146C70.3134 72.6004 70.568 72.4934 70.8627 72.4934H95.8605C96.1552 72.4934 96.4097 72.6004 96.6241 72.8146C96.8384 73.0287 96.9456 73.283 96.9456 73.5774V79.2386C96.9456 79.533 96.8384 79.7873 96.6241 80.0015C96.4097 80.2156 96.1552 80.3227 95.8605 80.3227H80.2268V82.8521H93.6501C93.9448 82.8521 94.1993 82.9592 94.4137 83.1733C94.628 83.3875 94.7352 83.6417 94.7352 83.9362V89.1557C94.7352 89.4501 94.628 89.7044 94.4137 89.9185C94.1993 90.1327 93.9448 90.2398 93.6501 90.2398H80.2268V92.7692H96.2624Z" fill="white"/>
<path d="M28.0522 19.8743C28.3469 19.8743 28.6015 19.9814 28.8158 20.1955C29.0301 20.4097 29.1373 20.664 29.1373 20.9584V27.0211C29.1373 27.3155 29.0301 27.5698 28.8158 27.7839C28.6015 27.9981 28.3469 28.1051 28.0522 28.1051H4.58159C4.28687 28.1051 4.03234 27.9981 3.81799 27.7839C3.60365 27.5698 3.49648 27.3155 3.49648 27.0211V1.08406C3.49648 0.789621 3.60365 0.535337 3.81799 0.321202C4.03234 0.107067 4.28687 0 4.58159 0H13.2625C13.5572 0 13.8118 0.107067 14.0261 0.321202C14.2404 0.535337 14.3476 0.789621 14.3476 1.08406V19.8743H28.0522Z" stroke="#0DCB4D" stroke-width="2" mask="url(#path-1-inside-1)"/>
<path d="M49.0957 28.5066C44.5945 28.5066 41.0177 27.5296 38.3652 25.5757C35.7395 23.6217 34.4266 20.5703 34.4266 16.4214V1.08406C34.4266 0.789621 34.5338 0.535337 34.7481 0.321202C34.9625 0.107067 35.217 0 35.5117 0H43.9113C44.206 0 44.4606 0.107067 44.6749 0.321202C44.8892 0.535337 44.9964 0.789621 44.9964 1.08406V17.0638C44.9964 18.1613 45.3581 19.0044 46.0815 19.5933C46.8317 20.1822 47.8365 20.4766 49.0957 20.4766C50.355 20.4766 51.3463 20.1822 52.0698 19.5933C52.82 19.0044 53.1951 18.1613 53.1951 17.0638V1.08406C53.1951 0.789621 53.3022 0.535337 53.5166 0.321202C53.7309 0.107067 53.9854 0 54.2802 0H62.6798C62.9745 0 63.229 0.107067 63.4434 0.321202C63.6577 0.535337 63.7649 0.789621 63.7649 1.08406V16.4214C63.7649 20.5703 62.4386 23.6217 59.7861 25.5757C57.1604 27.5296 53.597 28.5066 49.0957 28.5066Z" stroke="#0DCB4D" stroke-width="2" mask="url(#path-1-inside-1)"/>
<path d="M99.8392 26.6999C99.9464 26.8605 100 27.0345 100 27.2218C100 27.4627 99.9062 27.6769 99.7187 27.8642C99.5579 28.0248 99.357 28.1051 99.1158 28.1051H88.747C88.1307 28.1051 87.6485 27.891 87.3001 27.4627L80.3072 18.8304V27.0211C80.3072 27.3155 80.2 27.5698 79.9857 27.7839C79.7713 27.9981 79.5168 28.1051 79.2221 28.1051H70.9431C70.6483 28.1051 70.3938 27.9981 70.1795 27.7839C69.9651 27.5698 69.858 27.3155 69.858 27.0211V1.08406C69.858 0.789621 69.9651 0.535337 70.1795 0.321202C70.3938 0.107067 70.6483 0 70.9431 0H79.2221C79.5168 0 79.7713 0.107067 79.9857 0.321202C80.2 0.535337 80.3072 0.789621 80.3072 1.08406V8.63229L86.6571 0.682554C87.059 0.227518 87.5547 0 88.1441 0H97.8298C98.0709 0 98.2719 0.0936841 98.4326 0.281052C98.6202 0.441653 98.7139 0.642403 98.7139 0.883304C98.7139 1.09744 98.647 1.28481 98.513 1.44541L88.9881 13.0488L99.8392 26.6999Z" stroke="#0DCB4D" stroke-width="2" mask="url(#path-1-inside-1)"/>
<path d="M20.4162 56.121H27.6905C27.9852 56.121 28.2397 56.2281 28.4541 56.4422C28.6684 56.6564 28.7756 56.9106 28.7756 57.2051V63.2678C28.7756 63.5622 28.6684 63.8165 28.4541 64.0306C28.2397 64.2447 27.9852 64.3518 27.6905 64.3518H2.21042C1.91569 64.3518 1.66116 64.2447 1.44682 64.0306C1.23247 63.8165 1.1253 63.5622 1.1253 63.2678V57.2051C1.1253 56.9106 1.23247 56.6564 1.44682 56.4422C1.66116 56.2281 1.91569 56.121 2.21042 56.121H9.56508V44.4775H2.21042C1.91569 44.4775 1.66116 44.3704 1.44682 44.1563C1.23247 43.9421 1.1253 43.6879 1.1253 43.3934V37.3307C1.1253 37.0363 1.23247 36.782 1.44682 36.5679C1.66116 36.3538 1.91569 36.2467 2.21042 36.2467H27.6905C27.9852 36.2467 28.2397 36.3538 28.4541 36.5679C28.6684 36.782 28.7756 37.0363 28.7756 37.3307V43.3934C28.7756 43.6879 28.6684 43.9421 28.4541 44.1563C28.2397 44.3704 27.9852 44.4775 27.6905 44.4775H20.4162V56.121Z" stroke="#0DCB4D" stroke-width="2" mask="url(#path-1-inside-1)"/>
<path d="M51.3062 46.4448C54.2534 46.766 56.6112 47.288 58.3795 48.0107C60.1746 48.7334 61.4741 49.6836 62.2779 50.8614C63.0816 52.0391 63.4835 53.5113 63.4835 55.2779C63.4835 57.2051 62.8539 58.8914 61.5946 60.3368C60.3622 61.7554 58.6474 62.8529 56.4504 63.6291C54.2534 64.3786 51.7482 64.7533 48.935 64.7533C45.8002 64.7533 43.1477 64.3652 40.9775 63.589C38.8073 62.8127 37.1863 61.7822 36.1146 60.4974C35.0428 59.1858 34.507 57.7538 34.507 56.2013C34.507 55.9337 34.5874 55.7195 34.7481 55.5589C34.9357 55.3983 35.1634 55.318 35.4313 55.318H43.6702C44.2328 55.318 44.6883 55.492 45.0366 55.84C45.4921 56.2682 46.0012 56.5627 46.5638 56.7233C47.1265 56.8571 47.9168 56.924 48.935 56.924C51.4803 56.924 52.753 56.5359 52.753 55.7597C52.753 55.4385 52.5788 55.1708 52.2305 54.9567C51.909 54.7158 51.3196 54.515 50.4622 54.3544C49.6316 54.167 48.3991 53.9797 46.7648 53.7923C43.0941 53.364 40.2809 52.454 38.325 51.0621C36.3691 49.6435 35.3912 47.6493 35.3912 45.0797C35.3912 43.2596 35.9404 41.6536 37.0389 40.2617C38.1374 38.8698 39.6914 37.7858 41.7009 37.0095C43.7372 36.2333 46.0949 35.8452 48.7742 35.8452C51.5607 35.8452 53.9988 36.2868 56.0887 37.1701C58.1785 38.0267 59.7727 39.0973 60.8712 40.3822C61.9697 41.667 62.519 42.925 62.519 44.1563C62.519 44.4239 62.4252 44.6381 62.2377 44.7987C62.0769 44.9593 61.8492 45.0396 61.5545 45.0396H52.9137C52.4582 45.0396 52.043 44.879 51.6679 44.5578C51.3731 44.2901 51.0248 44.076 50.6229 43.9154C50.221 43.7548 49.6048 43.6745 48.7742 43.6745C46.9791 43.6745 46.0815 44.0492 46.0815 44.7987C46.0815 45.2002 46.4298 45.5214 47.1265 45.7623C47.8231 45.9764 49.2163 46.2039 51.3062 46.4448Z" stroke="#0DCB4D" stroke-width="2" mask="url(#path-1-inside-1)"/>
<path d="M99.8392 62.9466C99.9464 63.1072 100 63.2811 100 63.4685C100 63.7094 99.9062 63.9235 99.7187 64.1109C99.5579 64.2715 99.357 64.3518 99.1158 64.3518H88.747C88.1307 64.3518 87.6485 64.1377 87.3001 63.7094L80.3072 55.0771V63.2678C80.3072 63.5622 80.2 63.8165 79.9857 64.0306C79.7713 64.2447 79.5168 64.3518 79.2221 64.3518H70.9431C70.6483 64.3518 70.3938 64.2447 70.1795 64.0306C69.9651 63.8165 69.858 63.5622 69.858 63.2678V37.3307C69.858 37.0363 69.9651 36.782 70.1795 36.5679C70.3938 36.3538 70.6483 36.2467 70.9431 36.2467H79.2221C79.5168 36.2467 79.7713 36.3538 79.9857 36.5679C80.2 36.782 80.3072 37.0363 80.3072 37.3307V44.879L86.6571 36.9292C87.059 36.4742 87.5547 36.2467 88.1441 36.2467H97.8298C98.0709 36.2467 98.2719 36.3404 98.4326 36.5277C98.6202 36.6883 98.7139 36.8891 98.7139 37.13C98.7139 37.3441 98.647 37.5315 98.513 37.6921L88.9881 49.2955L99.8392 62.9466Z" stroke="#0DCB4D" stroke-width="2" mask="url(#path-1-inside-1)"/>
<path d="M29.9009 88.9951C29.9009 93.0904 28.5345 96.1151 25.8016 98.069C23.0955 100.023 19.4785 101 14.9505 101C10.4224 101 6.79201 100.023 4.05913 98.069C1.35304 96.1151 0 93.0636 0 88.9148V84.1771C0 81.4469 0.64303 79.1851 1.92909 77.3917C3.24194 75.5716 5.02367 74.2332 7.27428 73.3767C9.52489 72.5201 12.0836 72.0919 14.9505 72.0919C17.8173 72.0919 20.3626 72.5201 22.5864 73.3767C24.837 74.2332 26.6188 75.5582 27.9316 77.3515C29.2445 79.1449 29.9009 81.3933 29.9009 84.0968V88.9951ZM10.8511 89.758C10.8511 90.8554 11.2128 91.6985 11.9362 92.2874C12.6865 92.8763 13.6912 93.1707 14.9505 93.1707C16.2097 93.1707 17.2011 92.8763 17.9245 92.2874C18.6747 91.6718 19.0498 90.8152 19.0498 89.7178V83.3741C19.0498 82.2766 18.6747 81.4335 17.9245 80.8446C17.2011 80.229 16.2097 79.9212 14.9505 79.9212C13.6912 79.9212 12.6865 80.2156 11.9362 80.8045C11.2128 81.3933 10.8511 82.2365 10.8511 83.3339V89.758Z" stroke="#0DCB4D" stroke-width="2" mask="url(#path-1-inside-1)"/>
<path d="M48.9752 72.4934C53.5032 72.4934 57.1202 73.4704 59.8263 75.4243C62.5592 77.3783 63.9256 80.403 63.9256 84.4983V88.5936C63.9256 92.7692 62.5726 95.8206 59.8665 97.7478C57.1872 99.6483 53.5568 100.599 48.9752 100.599H36.1548C35.86 100.599 35.6055 100.491 35.3912 100.277C35.1768 100.063 35.0696 99.8089 35.0696 99.5144V73.5774C35.0696 73.283 35.1768 73.0287 35.3912 72.8146C35.6055 72.6004 35.86 72.4934 36.1548 72.4934H48.9752ZM49.1761 92.7692C50.4354 92.7692 51.4267 92.4748 52.1501 91.8859C52.9003 91.2703 53.2754 90.4137 53.2754 89.3163V83.7756C53.2754 82.6781 52.9003 81.835 52.1501 81.2461C51.4267 80.6305 50.4354 80.3227 49.1761 80.3227H45.5189V92.7692H49.1761Z" stroke="#0DCB4D" stroke-width="2" mask="url(#path-1-inside-1)"/>
<path d="M96.2624 92.7692C96.5571 92.7692 96.8116 92.8763 97.026 93.0904C97.2403 93.3045 97.3475 93.5588 97.3475 93.8533V99.5144C97.3475 99.8089 97.2403 100.063 97.026 100.277C96.8116 100.491 96.5571 100.599 96.2624 100.599H70.8627C70.568 100.599 70.3134 100.491 70.0991 100.277C69.8847 100.063 69.7776 99.8089 69.7776 99.5144V73.5774C69.7776 73.283 69.8847 73.0287 70.0991 72.8146C70.3134 72.6004 70.568 72.4934 70.8627 72.4934H95.8605C96.1552 72.4934 96.4097 72.6004 96.6241 72.8146C96.8384 73.0287 96.9456 73.283 96.9456 73.5774V79.2386C96.9456 79.533 96.8384 79.7873 96.6241 80.0015C96.4097 80.2156 96.1552 80.3227 95.8605 80.3227H80.2268V82.8521H93.6501C93.9448 82.8521 94.1993 82.9592 94.4137 83.1733C94.628 83.3875 94.7352 83.6417 94.7352 83.9362V89.1557C94.7352 89.4501 94.628 89.7044 94.4137 89.9185C94.1993 90.1327 93.9448 90.2398 93.6501 90.2398H80.2268V92.7692H96.2624Z" stroke="#0DCB4D" stroke-width="2" mask="url(#path-1-inside-1)"/>
</svg>
